<?xml version="1.0" standalone="no"?>
<!DOCTYPE svg PUBLIC "-//W3C//DTD SVG 20010904//EN"
 "http://www.w3.org/TR/2001/REC-SVG-20010904/DTD/svg10.dtd">
<svg version="1.0" xmlns="http://www.w3.org/2000/svg"
 width="296.000000pt" height="101.000000pt" viewBox="0 0 296.000000 101.000000"
 preserveAspectRatio="xMidYMid meet">

<g transform="translate(0.000000,101.000000) scale(0.100000,-0.100000)"
fill="#000000" stroke="none">
<path d="M1337 746 c-8 -9 -20 -53 -27 -103 -6 -48 -18 -128 -27 -177 -13 -75
-13 -90 -2 -97 23 -14 28 -11 57 37 44 74 93 135 105 131 7 -2 17 -31 23 -65
12 -68 27 -92 56 -92 26 0 33 24 15 52 -9 13 -19 46 -23 73 -11 77 -20 95 -49
95 -40 0 -63 -17 -96 -68 -34 -54 -34 -53 -9 58 23 101 25 144 6 159 -11 9
-17 8 -29 -3z"/>
<path d="M2440 558 c-66 -100 -119 -189 -118 -197 8 -42 37 -17 116 101 46 68
103 152 127 187 35 50 43 67 34 77 -6 8 -17 14 -25 14 -7 0 -67 -82 -134 -182z"/>
<path d="M667 717 c-8 -7 -41 -42 -75 -78 l-60 -67 -51 64 c-52 64 -92 87
-114 65 -8 -8 -1 -22 29 -54 22 -23 55 -61 72 -83 31 -41 31 -43 25 -123 l-6
-81 26 0 c23 0 26 5 32 48 16 122 14 118 91 202 41 44 74 86 74 94 0 19 -25
27 -43 13z"/>
<path d="M1060 689 c-48 -28 -70 -58 -70 -95 0 -40 20 -57 108 -90 82 -30 89
-45 33 -78 -25 -14 -52 -20 -98 -19 -54 0 -63 -2 -63 -17 0 -51 104 -52 193
-2 89 50 89 115 0 148 -108 39 -113 42 -113 66 0 51 114 80 144 36 13 -18 18
-19 31 -8 21 17 19 57 -4 70 -34 18 -123 12 -161 -11z"/>
<path d="M1942 693 c-5 -10 -13 -32 -16 -50 -6 -27 -13 -32 -47 -38 -48 -8
-52 -38 -5 -43 23 -3 27 -7 22 -25 -4 -12 -10 -48 -13 -80 -7 -66 11 -97 57
-97 33 0 94 39 98 63 4 21 -17 22 -44 2 -23 -18 -51 -19 -56 -3 -5 13 10 116
18 129 2 4 29 13 59 19 45 9 55 15 55 32 0 18 -4 20 -45 14 l-45 -7 3 48 c1
37 -1 48 -15 51 -9 2 -21 -5 -26 -15z"/>
<path d="M219 617 c-93 -78 -105 -93 -88 -113 19 -23 169 -96 185 -90 31 12
11 37 -58 72 l-72 36 67 62 c37 33 67 67 67 74 0 26 -38 10 -101 -41z"/>
<path d="M2644 656 c-9 -22 17 -49 82 -86 30 -17 54 -33 54 -36 0 -4 -25 -32
-55 -62 -56 -57 -63 -74 -30 -81 12 -2 35 14 64 46 25 27 58 58 74 67 15 10
27 24 27 30 0 6 -28 28 -62 49 -35 20 -82 48 -105 63 -38 23 -44 24 -49 10z"/>
<path d="M1672 600 c-73 -53 -118 -159 -88 -205 24 -37 67 -33 115 10 l39 35
6 -35 c8 -41 19 -49 52 -41 28 7 31 21 8 44 -14 13 -15 30 -9 104 5 74 4 88
-8 88 -8 0 -17 7 -21 15 -9 24 -50 18 -94 -15z m67 -72 c-12 -43 -69 -107 -96
-108 -34 -1 12 112 59 144 31 22 49 5 37 -36z"/>
<path d="M724 612 c-6 -4 -18 -44 -28 -90 -14 -73 -14 -87 -2 -117 21 -50 64
-49 116 3 l37 37 12 -43 c9 -37 15 -43 34 -40 16 2 21 8 17 23 -2 11 -4 64 -3
118 1 92 -1 98 -19 95 -13 -2 -27 -22 -43 -62 -25 -60 -69 -116 -92 -116 -18
0 -17 54 3 119 12 41 13 56 3 67 -13 16 -19 17 -35 6z"/>
<path d="M2140 581 c-89 -93 -70 -232 31 -218 100 13 168 131 124 216 -17 33
-33 41 -82 41 -29 0 -44 -8 -73 -39z m111 -37 c20 -54 -35 -139 -85 -132 -24
3 -30 26 -22 73 15 76 85 115 107 59z"/>
</g>
</svg>
